<svg xmlns="http://www.w3.org/2000/svg" xmlns:xlink="http://www.w3.org/1999/xlink" contentStyleType="text/css" data-diagram-type="CLASS" height="278px" preserveAspectRatio="none" style="width:344px;height:278px;background:#FFFFFF;" version="1.1" viewBox="0 0 344 278" width="344px" zoomAndPan="magnify"><defs/><g><!--class Case--><g class="entity" data-entity="Case" data-source-line="1" data-uid="ent0002" id="entity_Case"><rect fill="#F1F1F1" height="48" rx="2.5" ry="2.5" style="stroke:#181818;stroke-width:0.5;" width="66.2617" x="144.08" y="7"/><ellipse cx="159.08" cy="23" fill="#ADD1B2" rx="11" ry="11" style="stroke:#181818;stroke-width:1;"/><path d="M162.0488,28.6406 Q161.4706,28.9375 160.83,29.0781 Q160.1894,29.2344 159.4863,29.2344 Q156.9863,29.2344 155.6581,27.5938 Q154.3456,25.9375 154.3456,22.8125 Q154.3456,19.6875 155.6581,18.0313 Q156.9863,16.375 159.4863,16.375 Q160.1894,16.375 160.83,16.5313 Q161.4863,16.6875 162.0488,16.9844 L162.0488,19.7031 Q161.4238,19.125 160.83,18.8594 Q160.2363,18.5781 159.6113,18.5781 Q158.2675,18.5781 157.58,19.6563 Q156.8925,20.7188 156.8925,22.8125 Q156.8925,24.9063 157.58,25.9844 Q158.2675,27.0469 159.6113,27.0469 Q160.2363,27.0469 160.83,26.7813 Q161.4238,26.5 162.0488,25.9219 L162.0488,28.6406 Z " fill="#000000"/><text fill="#000000" font-family="sans-serif" font-size="14" lengthAdjust="spacing" textLength="34.2617" x="173.08" y="27.8467">Case</text><line style="stroke:#181818;stroke-width:0.5;" x1="145.08" x2="209.3417" y1="39" y2="39"/><line style="stroke:#181818;stroke-width:0.5;" x1="145.08" x2="209.3417" y1="47" y2="47"/></g><!--class Container--><g class="entity" data-entity="Container" data-source-line="2" data-uid="ent0003" id="entity_Container"><rect fill="#F1F1F1" height="48" rx="2.5" ry="2.5" style="stroke:#181818;stroke-width:0.5;" width="100.4141" x="7" y="115"/><ellipse cx="22" cy="131" fill="#ADD1B2" rx="11" ry="11" style="stroke:#181818;stroke-width:1;"/><path d="M24.9688,136.6406 Q24.3906,136.9375 23.75,137.0781 Q23.1094,137.2344 22.4063,137.2344 Q19.9063,137.2344 18.5781,135.5938 Q17.2656,133.9375 17.2656,130.8125 Q17.2656,127.6875 18.5781,126.0313 Q19.9063,124.375 22.4063,124.375 Q23.1094,124.375 23.75,124.5313 Q24.4063,124.6875 24.9688,124.9844 L24.9688,127.7031 Q24.3438,127.125 23.75,126.8594 Q23.1563,126.5781 22.5313,126.5781 Q21.1875,126.5781 20.5,127.6563 Q19.8125,128.7188 19.8125,130.8125 Q19.8125,132.9063 20.5,133.9844 Q21.1875,135.0469 22.5313,135.0469 Q23.1563,135.0469 23.75,134.7813 Q24.3438,134.5 24.9688,133.9219 L24.9688,136.6406 Z " fill="#000000"/><text fill="#000000" font-family="sans-serif" font-size="14" lengthAdjust="spacing" textLength="68.4141" x="36" y="135.8467">Container</text><line style="stroke:#181818;stroke-width:0.5;" x1="8" x2="106.4141" y1="147" y2="147"/><line style="stroke:#181818;stroke-width:0.5;" x1="8" x2="106.4141" y1="155" y2="155"/></g><!--class Block--><g class="entity" data-entity="Block" data-source-line="3" data-uid="ent0004" id="entity_Block"><rect fill="#F1F1F1" height="48" rx="2.5" ry="2.5" style="stroke:#181818;stroke-width:0.5;" width="69.8643" x="142.27" y="115"/><ellipse cx="157.27" cy="131" fill="#ADD1B2" rx="11" ry="11" style="stroke:#181818;stroke-width:1;"/><path d="M160.2388,136.6406 Q159.6606,136.9375 159.02,137.0781 Q158.3794,137.2344 157.6763,137.2344 Q155.1763,137.2344 153.8481,135.5938 Q152.5356,133.9375 152.5356,130.8125 Q152.5356,127.6875 153.8481,126.0313 Q155.1763,124.375 157.6763,124.375 Q158.3794,124.375 159.02,124.5313 Q159.6763,124.6875 160.2388,124.9844 L160.2388,127.7031 Q159.6138,127.125 159.02,126.8594 Q158.4263,126.5781 157.8013,126.5781 Q156.4575,126.5781 155.77,127.6563 Q155.0825,128.7188 155.0825,130.8125 Q155.0825,132.9063 155.77,133.9844 Q156.4575,135.0469 157.8013,135.0469 Q158.4263,135.0469 159.02,134.7813 Q159.6138,134.5 160.2388,133.9219 L160.2388,136.6406 Z " fill="#000000"/><text fill="#000000" font-family="sans-serif" font-size="14" lengthAdjust="spacing" textLength="37.8643" x="171.27" y="135.8467">Block</text><line style="stroke:#181818;stroke-width:0.5;" x1="143.27" x2="211.1343" y1="147" y2="147"/><line style="stroke:#181818;stroke-width:0.5;" x1="143.27" x2="211.1343" y1="155" y2="155"/></g><!--class Slide--><g class="entity" data-entity="Slide" data-source-line="4" data-uid="ent0005" id="entity_Slide"><rect fill="#F1F1F1" height="48" rx="2.5" ry="2.5" style="stroke:#181818;stroke-width:0.5;" width="66.166" x="144.12" y="223"/><ellipse cx="159.12" cy="239" fill="#ADD1B2" rx="11" ry="11" style="stroke:#181818;stroke-width:1;"/><path d="M162.0888,244.6406 Q161.5106,244.9375 160.87,245.0781 Q160.2294,245.2344 159.5263,245.2344 Q157.0263,245.2344 155.6981,243.5938 Q154.3856,241.9375 154.3856,238.8125 Q154.3856,235.6875 155.6981,234.0313 Q157.0263,232.375 159.5263,232.375 Q160.2294,232.375 160.87,232.5313 Q161.5263,232.6875 162.0888,232.9844 L162.0888,235.7031 Q161.4638,235.125 160.87,234.8594 Q160.2763,234.5781 159.6513,234.5781 Q158.3075,234.5781 157.62,235.6563 Q156.9325,236.7188 156.9325,238.8125 Q156.9325,240.9063 157.62,241.9844 Q158.3075,243.0469 159.6513,243.0469 Q160.2763,243.0469 160.87,242.7813 Q161.4638,242.5 162.0888,241.9219 L162.0888,244.6406 Z " fill="#000000"/><text fill="#000000" font-family="sans-serif" font-size="14" lengthAdjust="spacing" textLength="34.166" x="173.12" y="243.8467">Slide</text><line style="stroke:#181818;stroke-width:0.5;" x1="145.12" x2="209.286" y1="255" y2="255"/><line style="stroke:#181818;stroke-width:0.5;" x1="145.12" x2="209.286" y1="263" y2="263"/></g><!--class Analysis--><g class="entity" data-entity="Analysis" data-source-line="5" data-uid="ent0006" id="entity_Analysis"><rect fill="#F1F1F1" height="48" rx="2.5" ry="2.5" style="stroke:#181818;stroke-width:0.5;" width="89.6816" x="247.37" y="115"/><ellipse cx="262.37" cy="131" fill="#ADD1B2" rx="11" ry="11" style="stroke:#181818;stroke-width:1;"/><path d="M265.3388,136.6406 Q264.7606,136.9375 264.12,137.0781 Q263.4794,137.2344 262.7763,137.2344 Q260.2763,137.2344 258.9481,135.5938 Q257.6356,133.9375 257.6356,130.8125 Q257.6356,127.6875 258.9481,126.0313 Q260.2763,124.375 262.7763,124.375 Q263.4794,124.375 264.12,124.5313 Q264.7763,124.6875 265.3388,124.9844 L265.3388,127.7031 Q264.7138,127.125 264.12,126.8594 Q263.5263,126.5781 262.9013,126.5781 Q261.5575,126.5781 260.87,127.6563 Q260.1825,128.7188 260.1825,130.8125 Q260.1825,132.9063 260.87,133.9844 Q261.5575,135.0469 262.9013,135.0469 Q263.5263,135.0469 264.12,134.7813 Q264.7138,134.5 265.3388,133.9219 L265.3388,136.6406 Z " fill="#000000"/><text fill="#000000" font-family="sans-serif" font-size="14" lengthAdjust="spacing" textLength="57.6816" x="276.37" y="135.8467">Analysis</text><line style="stroke:#181818;stroke-width:0.5;" x1="248.37" x2="336.0516" y1="147" y2="147"/><line style="stroke:#181818;stroke-width:0.5;" x1="248.37" x2="336.0516" y1="155" y2="155"/></g><!--link Case to Container--><g class="link" data-entity-1="Case" data-entity-2="Container" data-source-line="6" data-uid="lnk7" id="link_Case_Container"><path codeLine="6" d="M141.8773,63.2056 C121.8673,80.8856 107.9666,93.1575 87.9766,110.8175" fill="none" id="Case-Container" style="stroke:#181818;stroke-width:1;"/><polygon fill="#181818" points="150.87,55.26,143.7251,56.2352,141.8773,63.2056,149.0222,62.2303,150.87,55.26" style="stroke:#181818;stroke-width:1;"/><polygon fill="#181818" points="83.48,114.79,92.8732,111.829,87.2272,111.4796,87.5766,105.8335,83.48,114.79" style="stroke:#181818;stroke-width:1;"/><text fill="#000000" font-family="sans-serif" font-size="13" lengthAdjust="spacing" textLength="16.5356" x="72.2311" y="103.7482">1..</text></g><!--link Case to Block--><g class="link" data-entity-1="Case" data-entity-2="Block" data-source-line="7" data-uid="lnk8" id="link_Case_Block"><path codeLine="7" d="M177.21,67.26 C177.21,84.94 177.21,91.13 177.21,108.79" fill="none" id="Case-Block" style="stroke:#181818;stroke-width:1;"/><polygon fill="#181818" points="177.21,55.26,173.21,61.26,177.21,67.26,181.21,61.26,177.21,55.26" style="stroke:#181818;stroke-width:1;"/><polygon fill="#181818" points="177.21,114.79,181.21,105.79,177.21,109.79,173.21,105.79,177.21,114.79" style="stroke:#181818;stroke-width:1;"/><text fill="#000000" font-family="sans-serif" font-size="13" lengthAdjust="spacing" textLength="16.5356" x="159.2306" y="103.7482">1..</text></g><!--link Block to Slide--><g class="link" data-entity-1="Block" data-entity-2="Slide" data-source-line="8" data-uid="lnk9" id="link_Block_Slide"><path codeLine="8" d="M177.21,175.26 C177.21,192.94 177.21,199.13 177.21,216.79" fill="none" id="Block-Slide" style="stroke:#181818;stroke-width:1;"/><polygon fill="#181818" points="177.21,163.26,173.21,169.26,177.21,175.26,181.21,169.26,177.21,163.26" style="stroke:#181818;stroke-width:1;"/><polygon fill="#181818" points="177.21,222.79,181.21,213.79,177.21,217.79,173.21,213.79,177.21,222.79" style="stroke:#181818;stroke-width:1;"/><text fill="#000000" font-family="sans-serif" font-size="13" lengthAdjust="spacing" textLength="16.5356" x="159.2304" y="211.7482">1..</text></g><!--link Case to Analysis--><g class="link" data-entity-1="Case" data-entity-2="Analysis" data-source-line="9" data-uid="lnk10" id="link_Case_Analysis"><path codeLine="9" d="M211.2633,63.3932 C230.4433,81.0732 243.4582,93.0636 262.6182,110.7236" fill="none" id="Case-Analysis" style="stroke:#181818;stroke-width:1;"/><polygon fill="#181818" points="202.44,55.26,204.1406,62.2677,211.2633,63.3932,209.5627,56.3855,202.44,55.26" style="stroke:#181818;stroke-width:1;"/><polygon fill="#181818" points="267.03,114.79,263.1232,105.7491,263.3535,111.4013,257.7013,111.6316,267.03,114.79" style="stroke:#181818;stroke-width:1;"/><text fill="#000000" font-family="sans-serif" font-size="13" lengthAdjust="spacing" textLength="23.0356" x="234.6351" y="103.7482">0..*</text></g><!--link Container to Block--><g class="link" data-entity-1="Container" data-entity-2="Block" data-source-line="10" data-uid="lnk11" id="link_Container_Block"><path codeLine="10" d="M107.83,139 C119.21,139 124.6,139 135.98,139" fill="none" id="Container-to-Block" style="stroke:#181818;stroke-width:1;"/><polygon fill="#181818" points="141.98,139,132.98,135,136.98,139,132.98,143,141.98,139" style="stroke:#181818;stroke-width:1;"/><text fill="#000000" font-family="sans-serif" font-size="13" lengthAdjust="spacing" textLength="8.271" x="125.9184" y="134.5337">1</text></g><!--SRC=[Iyv9B2vMS4uiJbMehkLAXl3oyqeIC_DIYn12JZdvoTa8Rd1EPWgI1iUyn9pAuinYa0ZOA2rTNJi59KCzFIM4OHWo44Ev84OZYOCDHrPjeAUdfGItX0lXF0Mm7YM8GG00]--></g></svg>